# xmcd
#
# Track frame offsets:
#	150
#	20136
#	35642
#	50464
#	65584
#	83277
#	98593
#	121380
#	137798
#	151936
#	165516
#	180416
#	201642
#	217398
#	230901
#	250727
#	272509
#	290221
#	309821
#	328442
#
# Disc length: 4598 seconds
#
# Revision: 2
# Processed by: cddbd v1.5.2PL0 Copyright (c) Steve Scherf et al.
# Submitted via: audiograbber 1.83.01
#
DISCID=2c11f414
DTITLE=Various Artist - Geniesser Lounge - Nordic Atmosphere [CD 1)
DYEAR=2010
DGENRE=Pop
TTITLE0=Maria Mena - Just Hold Me
TTITLE1=Marit Larsen - If A Song Could Get Me You
TTITLE2=Sophie Zelmani - I'll Remember You
TTITLE3=Agnetha Fältskog - S.O.S.
TTITLE4=Lene Marlin - Sitting Down Here
TTITLE5=Emilia - Big Big World
TTITLE6=Lisa Nilsson - Himlen Runt Hörnet
TTITLE7=Meja - I'm Missing You
TTITLE8=Anneli Drecker - You Don't Have To Change
TTITLE9=Anna Bergendahl - This Is My Life
TTITLE10=Gitte Hænning - Lover Man
TTITLE11=Carola - You Bring Out The Best In Me
TTITLE12=Elvira Nikolaisen - The One You Cannot Keep
TTITLE13=Lisa Ekdahl and Peter Nordahl Trio - I'm A Fool To Want You
TTITLE14=Cæcilie Norby - You
TTITLE15=Melissa Horn - Jag kan inte skilja på
TTITLE16=Anna Ternheim - Off The Road
TTITLE17=Marie Serneholt - Beyond Tonight
TTITLE18=Louise Hoffsten - Try A Little Harder
TTITLE19=Vibeke Saugestad - Star Song
EXTD=
EXTT0=
EXTT1=
EXTT2=
EXTT3=
EXTT4=
EXTT5=
EXTT6=
EXTT7=
EXTT8=
EXTT9=
EXTT10=
EXTT11=
EXTT12=
EXTT13=
EXTT14=
EXTT15=
EXTT16=
EXTT17=
EXTT18=
EXTT19=
PLAYORDER=
